<svg width="76" height="73" viewBox="0 0 76 73" fill="none" xmlns="http://www.w3.org/2000/svg">
<path d="M73.7335 33.0449L54.1228 25.78L46.7999 1.75974C46.5178 0.833429 45.6606 0.198242 44.6932 0.198242C43.7258 0.198242 42.8685 0.833429 42.5865 1.75974L35.2658 25.78L15.6529 33.0449C14.7868 33.3669 14.2139 34.1896 14.2139 35.1137C14.2139 36.0356 14.7868 36.8627 15.6529 37.1825L35.2548 44.4452L42.5798 69.1977C42.8575 70.1328 43.7169 70.7746 44.6932 70.7746C45.6672 70.7746 46.5289 70.1328 46.8065 69.1954L54.1316 44.443L73.7357 37.1803C74.5973 36.8627 75.1725 36.0378 75.1725 35.1137C75.1725 34.1918 74.5973 33.3669 73.7335 33.0449Z" fill="#3787FF"/>
<path d="M29.6598 57.3074L24.5604 55.4195L22.5771 48.1413C22.3171 47.1797 21.4466 46.5136 20.4527 46.5136C19.4589 46.5136 18.5884 47.1797 18.3262 48.1391L16.3429 55.4173L11.2457 57.3052C10.3797 57.625 9.8067 58.4521 9.8067 59.374C9.8067 60.2959 10.3797 61.1229 11.2457 61.4427L16.3164 63.324L18.3152 71.3124C18.562 72.2916 19.4413 72.9798 20.4527 72.9798C21.4642 72.9798 22.3435 72.2916 22.5903 71.3102L24.5891 63.3218L29.6598 61.4405C30.5258 61.1229 31.0988 60.2959 31.0988 59.374C31.0988 58.4521 30.5258 57.625 29.6598 57.3074ZM20.1002 9.52942L14.8906 7.59959L12.9602 2.38356C12.6407 1.51679 11.8165 0.943359 10.8931 0.943359C9.97198 0.943359 9.14779 1.51679 8.82606 2.38356L6.89782 7.59959L1.68608 9.52942C0.820031 9.85142 0.24707 10.6763 0.24707 11.5982C0.24707 12.5201 0.820031 13.3472 1.68608 13.667L6.89782 15.5968L8.82606 20.8128C9.14779 21.6796 9.97198 22.253 10.8931 22.253C11.8143 22.253 12.6384 21.6796 12.9602 20.8128L14.8884 15.5968L20.1002 13.667C20.9662 13.3449 21.5392 12.5201 21.5392 11.5982C21.5392 10.6763 20.9662 9.85142 20.1002 9.52942Z" fill="#543EE9"/>
</svg>
