<svg width="80" height="80" viewBox="0 0 80 80" fill="none" xmlns="http://www.w3.org/2000/svg">
<rect x="0.978484" y="1.14059" width="78.0432" height="78.0432" rx="25.8682" stroke="#E4F1F8" stroke-width="0.87689"/>
<path d="M48.7429 32.3701C53.7001 32.3701 57.7193 36.3039 57.7193 41.1558V51.5456C57.7193 56.3975 53.7001 60.3313 48.7429 60.3313H30.9481C25.9909 60.3313 21.9717 56.3975 21.9717 51.5456V41.1558C21.9717 36.3039 25.9909 32.3701 30.9481 32.3701H48.7429ZM39.8348 42.1994C38.8092 42.1994 37.9759 43.015 37.9759 44.0189V48.6617C37.9759 49.6864 38.8092 50.502 39.8348 50.502C40.8818 50.502 41.7152 49.6864 41.7152 48.6617V44.0189C41.7152 43.015 40.8818 42.1994 39.8348 42.1994Z" fill="#E4F1F8"/>
<path opacity="0.4" d="M51.4588 29.5962V32.6914C50.7109 32.4822 49.9203 32.3777 49.1084 32.3777H47.7195V29.5962C47.7195 25.3508 44.1939 21.9001 39.8563 21.9001C35.5187 21.9001 31.9931 25.3299 31.9717 29.5544V32.3777H30.6042C29.7709 32.3777 28.9803 32.4822 28.2324 32.7123V29.5962C28.2538 23.3222 33.4461 18.2402 39.8135 18.2402C46.2665 18.2402 51.4588 23.3222 51.4588 29.5962Z" fill="#E4F1F8"/>
</svg>
