<svg width="80" height="80" viewBox="0 0 80 80" fill="none" xmlns="http://www.w3.org/2000/svg">
<rect x="0.82614" y="1.21579" width="78.0432" height="78.0432" rx="25.8682" stroke="#E4F1F8" stroke-width="0.87689"/>
<path d="M26.2861 51.7203C26.2861 50.6532 26.6387 49.8008 27.2705 49.1066C27.9112 48.4026 28.8577 47.8416 30.0691 47.4097C32.4979 46.5437 35.8691 46.2382 39.5833 46.2382C43.278 46.2382 46.6497 46.5331 49.0842 47.3892C50.2984 47.8162 51.2484 48.3724 51.8918 49.0728C52.526 49.7632 52.8805 50.6127 52.8805 51.6794C52.8805 52.7464 52.528 53.5988 51.8961 54.2931C51.2555 54.9971 50.309 55.558 49.0976 55.99C46.6688 56.856 43.2975 57.1614 39.5833 57.1614C35.8887 57.1614 32.5169 56.8666 30.0825 56.0105C28.8682 55.5835 27.9182 55.0273 27.2748 54.3269C26.6406 53.6364 26.2861 52.7869 26.2861 51.7203Z" fill="#E4F1F8" stroke="#E4F1F8" stroke-width="0.87689"/>
<path opacity="0.4" d="M48.2346 32.1708C48.2346 37.0091 44.3833 40.8816 39.5836 40.8816C34.7839 40.8816 30.9326 37.0091 30.9326 32.1708C30.9326 27.3306 34.7838 23.4599 39.5836 23.4599C44.3833 23.4599 48.2346 27.3306 48.2346 32.1708Z" fill="#E4F1F8" stroke="#E4F1F8" stroke-width="0.87689"/>
<path opacity="0.4" d="M50.8021 25.0781C52.1979 27.1632 52.9943 29.663 52.9943 32.3357C52.9943 34.9582 52.2282 37.4099 50.8786 39.4591C51.1498 39.5002 51.4288 39.5227 51.7166 39.5306L50.8021 25.0781ZM50.8021 25.0781C51.1681 25.0199 51.54 24.9873 51.9236 24.9873C56.512 24.9873 60.1266 29.3344 58.8924 34.1935C58.0654 37.4484 55.0693 39.6187 51.7171 39.5306L50.8021 25.0781Z" fill="#E4F1F8" stroke="#E4F1F8" stroke-width="0.87689"/>
<path d="M62.6379 46.5842L62.6379 46.5842L62.6401 46.5889C63.1316 47.6114 63.1314 48.7969 62.6402 49.8171L62.6402 49.817L62.637 49.8239C62.2069 50.7581 61.2763 51.4135 60.2347 51.862C59.2396 52.2905 58.2086 52.5016 57.5963 52.5938C58.1062 47.5922 54.8214 44.7047 52.8121 43.4131C55.167 43.4766 57.4228 43.784 58.3289 44.0066L58.3389 44.009L58.3489 44.011C60.6781 44.4692 62.0757 45.3783 62.6379 46.5842Z" fill="#E4F1F8" stroke="#E4F1F8" stroke-width="0.87689"/>
<path opacity="0.4" d="M20.4953 34.1937L20.4952 34.1934C19.2591 29.3344 22.8736 24.9873 27.4621 24.9873C27.8472 24.9873 28.2208 25.019 28.5857 25.0775C27.1897 27.1609 26.3914 29.6609 26.3914 32.3357C26.3914 34.9583 27.1574 37.4078 28.5068 39.4587C28.2352 39.499 27.9549 39.5228 27.669 39.5306C24.3166 39.6189 21.3205 37.4485 20.4953 34.1937Z" fill="#E4F1F8" stroke="#E4F1F8" stroke-width="0.87689"/>
<path d="M21.0382 44.0103L21.0481 44.0084L21.058 44.006C21.966 43.7834 24.2213 43.4759 26.5773 43.4136C24.5669 44.7048 21.2809 47.592 21.7908 52.593C21.1789 52.5016 20.1487 52.2905 19.1543 51.8623C18.1127 51.4138 17.1821 50.7584 16.7519 49.8251L16.752 49.825L16.7486 49.8181C16.2556 48.796 16.2556 47.6109 16.7486 46.5888L16.7487 46.5888L16.7511 46.5836C17.3134 45.3775 18.7092 44.4686 21.0382 44.0103ZM21.8616 52.6033C21.8618 52.6033 21.862 52.6034 21.8622 52.6034L21.8616 52.6033Z" fill="#E4F1F8" stroke="#E4F1F8" stroke-width="0.87689"/>
</svg>
